<?xml version="1.0" standalone="no"?>
<!DOCTYPE svg PUBLIC "-//W3C//DTD SVG 20010904//EN"
 "http://www.w3.org/TR/2001/REC-SVG-20010904/DTD/svg10.dtd">
<svg version="1.0" xmlns="http://www.w3.org/2000/svg"
 width="700.000000pt" height="700.000000pt" viewBox="0 0 700.000000 700.000000"
 preserveAspectRatio="xMidYMid meet">
<metadata>
Created by potrace 1.11, written by Peter Selinger 2001-2013
</metadata>
<g transform="translate(0.000000,700.000000) scale(0.100000,-0.100000)"
fill="#000000" stroke="none">
<path d="M4388 5475 c-2 -1 -61 -5 -133 -8 -252 -12 -473 -60 -792 -171 -298
-103 -619 -294 -1106 -656 -218 -162 -591 -461 -752 -602 -16 -14 -82 -70
-145 -124 -167 -144 -652 -580 -805 -725 -44 -42 -116 -109 -160 -150 -44 -41
-147 -140 -230 -220 -82 -81 -177 -172 -209 -203 l-60 -57 291 -291 291 -291
139 11 c264 23 370 27 693 27 634 0 924 -42 1300 -187 191 -75 362 -127 545
-166 159 -35 406 -77 510 -88 39 -3 79 -8 90 -10 11 -2 78 -8 150 -14 71 -5
155 -12 187 -15 67 -6 588 -7 638 -1 19 3 71 7 115 11 107 8 278 32 395 56
158 32 228 78 272 176 22 51 30 130 17 177 -10 38 -302 760 -319 788 -12 22
-4 28 105 78 127 58 140 64 235 100 47 17 100 38 119 46 18 8 35 14 36 12 4
-4 56 -206 62 -240 2 -15 10 -47 17 -70 l12 -43 -84 -82 c-63 -62 -83 -87 -78
-100 4 -10 73 -168 154 -352 l147 -333 80 6 c179 14 377 67 494 133 104 58
167 133 208 247 46 131 111 430 138 641 10 82 14 107 25 185 27 180 17 297
-45 540 -133 524 -426 994 -836 1341 -117 99 -117 99 -244 184 -316 211 -728
369 -1075 410 -30 4 -66 9 -80 11 -14 2 -77 6 -140 10 -63 3 -127 7 -142 9
-15 1 -29 1 -30 0z"/>
</g>
</svg>
