<?xml version="1.0" encoding="iso-8859-1"?>
<!-- Generator: Adobe Illustrator 19.0.0, SVG Export Plug-In . SVG Version: 6.00 Build 0)  -->
<svg version="1.1" id="Layer_1" xmlns="http://www.w3.org/2000/svg" xmlns:xlink="http://www.w3.org/1999/xlink" x="0px" y="0px"
	 viewBox="0 0 512 512" style="enable-background:new 0 0 512 512;" xml:space="preserve">
<path style="fill:#52BED3;" d="M424.901,293.995l6.203,26.083l-12.264,12.264l22.64,50.941c0,0,44.337-0.944,54.714-22.64
	c10.377-21.697,15.801-79.929,15.801-79.929l-76.711-44.337"/>
<path style="fill:#76D9E5;" d="M435.286,236.375l-2.609,14.48l51.657,29.856c0,0-5.424,58.232-15.801,79.929
	c-4.841,10.122-17.073,15.726-28.745,18.826l1.695,3.815c0,0,44.337-0.944,54.714-22.64c10.377-21.696,15.801-79.929,15.801-79.929
	L435.286,236.375z"/>
<path style="fill:#E24260;" d="M387.709,309.704l23.092,56.665c4.608,11.327-1.902,24.116-13.782,27.031
	c-35.255,8.662-83.163,8.516-125.68,2.821c-2.184-0.293-4.368-0.606-6.52-0.93c-6.792-1.014-13.427-2.173-19.811-3.459
	c-18.662-3.751-35.255-8.61-47.856-14.211c-50.939-22.643-154.708-10.376-154.708-10.376L0,324.792
	c0,0,178.072-178.092,254.568-200.401c21.201-8.161,44.231-12.633,68.315-12.633c97.886,0,178.51,73.906,189.116,168.95
	C452.608,275.034,387.709,309.704,387.709,309.704z"/>
<path style="fill:#CE2647;" d="M173.537,324.238c0,0,19.414,52.893,71.471,67.594c-18.662-3.751-35.255-8.61-47.856-14.211
	c-50.939-22.643-154.708-10.376-154.708-10.376L0,324.792c0,0,178.072-178.092,254.568-200.401
	c21.201-8.161,44.231-12.633,68.315-12.633C322.884,111.758,165.679,216.196,173.537,324.238z"/>
<path style="fill:#49618C;" d="M397.019,393.4c-12.57,3.082-26.76,5.057-41.733,6.05h-0.052
	c-55.85,3.72-122.681-6.092-158.083-21.828c-50.939-22.643-154.708-10.376-154.708-10.376L0,324.803
	c0,0,122.629-19.811,200.934,6.593c78.294,26.415,186.775-21.692,186.775-21.692l23.092,56.665
	C415.41,377.695,408.9,390.485,397.019,393.4z"/>
<path style="fill:#3B4773;" d="M355.234,399.45c-55.85,3.72-122.681-6.092-158.083-21.828
	c-50.939-22.643-154.708-10.376-154.708-10.376L0,324.803c0,0,122.629-19.811,200.934,6.593
	C200.934,331.396,261.078,399.45,355.234,399.45z"/>
<path style="fill:#76D9E5;" d="M264.819,395.291c2.518,0.188,4.681,0.491,6.52,0.93
	C269.155,395.929,266.971,395.615,264.819,395.291z"/>
<g>
</g>
<g>
</g>
<g>
</g>
<g>
</g>
<g>
</g>
<g>
</g>
<g>
</g>
<g>
</g>
<g>
</g>
<g>
</g>
<g>
</g>
<g>
</g>
<g>
</g>
<g>
</g>
<g>
</g>
</svg>
